# xmcd
#
# Track frame offsets:
# 150
# 13382
# 30797
# 45887
# 61732
# 76667
# 89457
# 102205
# 113902
# 135300
#
# Disc length: 1980 seconds
#
#
# Revision: 0
# Processed by: cddbd v1.4PL0 Copyright (c) Steve Scherf et al.
# Submitted via: FreeRIP 2.00 
#
DISCID=6607ba0a
DTITLE=Jimmy Reed - Cry Before I Go
DYEAR=1900
DGENRE=Blues
TTITLE0=Hard Walking Hanna
TTITLE1=Cry Before I Go
TTITLE2=Can't Stand to Leave
TTITLE3=Big Legged Woman
TTITLE4=Funky Funky Soul (Instrumental)
TTITLE5=Crying Blind
TTITLE6=Over the Hump
TTITLE7=Christmas Present Blues
TTITLE8=Jumpin' Jimmy (Instrumental)
TTITLE9=Good Is Catching Up With Me
EXTD=Drive Archive
EXTT0=
EXTT1=
EXTT2=
EXTT3=
EXTT4=
EXTT5=
EXTT6=
EXTT7=
EXTT8=
EXTT9=
PLAYORDER=
